<svg height="422pt" viewBox="-19 0 422 422.5024" width="422pt" xmlns="http://www.w3.org/2000/svg"><path d="m377.667969 354.988281h-20.605469c-3.769531 0-6.824219 3.054688-6.824219 6.828125 0 3.773438 3.054688 6.824219 6.824219 6.824219h20.605469c3.769531 0 6.824219-3.050781 6.824219-6.824219 0-3.773437-3.054688-6.828125-6.824219-6.828125zm0 0"/><path d="m329.589844 354.988281h-20.601563c-3.769531 0-6.828125 3.054688-6.828125 6.828125 0 3.773438 3.058594 6.824219 6.828125 6.824219h20.601563c3.769531 0 6.828125-3.050781 6.828125-6.824219 0-3.773437-3.058594-6.828125-6.828125-6.828125zm0 0"/><path d="m343.328125 320.648438c-3.769531 0-6.828125 3.054687-6.828125 6.828124v20.605469c0 3.773438 3.058594 6.824219 6.828125 6.824219s6.824219-3.050781 6.824219-6.824219v-20.605469c0-3.773437-3.054688-6.828124-6.824219-6.828124zm0 0"/><path d="m343.328125 368.722656c-3.769531 0-6.828125 3.050782-6.828125 6.824219v20.609375c0 3.773438 3.058594 6.824219 6.828125 6.824219s6.824219-3.050781 6.824219-6.824219v-20.609375c0-3.773437-3.054688-6.824219-6.824219-6.824219zm0 0"/><path d="m15.210938 366.140625c-5.382813 1.632813-9.808594 5.261719-12.460938 10.21875-2.6523438 4.960937-3.214844 10.660156-1.582031 16.035156 1.628906 5.386719 5.253906 9.820313 10.21875 12.472657 3.097656 1.65625 6.484375 2.496093 9.902343 2.496093 2.054688 0 4.117188-.300781 6.136719-.914062 5.382813-1.632813 9.808594-5.257813 12.460938-10.21875 2.652343-4.960938 3.214843-10.660157 1.585937-16.039063-3.371094-11.117187-15.152344-17.410156-26.261718-14.050781zm12.636718 23.648437c-.933594 1.746094-2.492187 3.019532-4.378906 3.589844-1.886719.566406-3.898438.375-5.640625-.550781-1.742187-.933594-3.023437-2.496094-3.59375-4.386719-1.183594-3.90625 1.03125-8.046875 4.9375-9.234375.714844-.210937 1.433594-.320312 2.144531-.320312 3.175782 0 6.117188 2.066406 7.089844 5.261719.570312 1.894531.375 3.894531-.558594 5.640624zm0 0"/><path d="m362.484375 42.113281c11.613281 0 21.058594-9.445312 21.058594-21.054687 0-11.613282-9.445313-21.058594-21.058594-21.058594-11.609375 0-21.054687 9.445312-21.054687 21.058594 0 11.609375 9.449218 21.054687 21.054687 21.054687zm0-28.457031c4.085937 0 7.40625 3.316406 7.40625 7.40625 0 4.082031-3.320313 7.398438-7.40625 7.398438-4.082031 0-7.402344-3.316407-7.402344-7.398438 0-4.089844 3.320313-7.40625 7.402344-7.40625zm0 0"/><path d="m273.738281 30.261719c5.082031 0 9.203125-4.121094 9.203125-9.203125 0-5.082032-4.121094-9.203125-9.203125-9.203125-5.078125 0-9.199219 4.121093-9.199219 9.203125 0 5.082031 4.117188 9.203125 9.199219 9.203125zm0 0"/><path d="m5.746094 64.429688c1.332031 1.332031 3.082031 2 4.828125 2 1.746093 0 3.492187-.667969 4.824219-2l5.238281-5.234376 5.234375 5.234376c1.332031 1.332031 3.082031 2 4.828125 2 1.746093 0 3.496093-.667969 4.824219-2 2.667968-2.667969 2.667968-6.988282 0-9.652344l-5.234376-5.234375 5.234376-5.234375c2.667968-2.664063 2.667968-6.984375 0-9.652344-2.664063-2.664062-6.984376-2.664062-9.652344 0l-5.234375 5.234375-5.238281-5.234375c-2.664063-2.664062-6.992188-2.664062-9.652344 0-2.664063 2.667969-2.664063 6.988281 0 9.652344l5.238281 5.234375-5.238281 5.234375c-2.667969 2.664062-2.667969 6.984375 0 9.652344zm0 0"/><path d="m310.449219 117.476562c1.347656 1.707032 3.34375 2.59375 5.359375 2.59375 1.480468 0 2.976562-.480468 4.230468-1.472656 2.957032-2.339844 3.457032-6.636718 1.117188-9.585937-3.0625-3.875-6.40625-7.675781-9.945312-11.292969-2.628907-2.695312-6.953126-2.742188-9.652344-.113281-2.695313 2.640625-2.746094 6.957031-.113282 9.660156 3.207032 3.273437 6.234376 6.714844 9.003907 10.210937zm0 0"/><path d="m268.570312 305.296875c49.472657-24.792969 80.160157-70.363281 80.160157-119.203125 0-20.757812-5.273438-40.71875-15.671875-59.324219-1.832032-3.28125-5.996094-4.460937-9.289063-2.628906-3.289062 1.839844-4.46875 6-2.628906 9.292969 9.246094 16.539062 13.9375 34.261718 13.9375 52.660156 0 42.414062-26.273437 82.253906-68.914063 105.074219-.390624-3.054688-.710937-6.128907-.894531-9.210938-.386719-6.417969.453125-12.769531 2.484375-18.890625l3.8125-11.460937c2.785156-8.359375 1.882813-17.566407-2.480468-25.253907-4.476563-7.886718-12.195313-13.550781-21.183594-15.539062l-40.046875-8.839844-10.453125-6.171875c-10.753906-6.34375-24.050782-6.226562-34.691406.304688l-7.886719 4.84375-37.25 11.4375c-16.734375 5.140625-26.328125 22.734375-21.386719 39.226562l1.816406 6.074219c2.6875 8.953125 2.824219 18.453125.402344 27.472656l-.410156 1.527344c-38.378906-23.492188-61.097656-60.660156-61.097656-100.59375 0-68.730469 66.882812-124.652344 149.089843-124.652344 36.488281 0 71.609375 11.148438 98.890625 31.394532 3.03125 2.246093 7.308594 1.621093 9.550782-1.414063 2.246093-3.023437 1.613281-7.296875-1.414063-9.546875-24.777344-18.390625-55.4375-29.832031-87.867187-33.09375l14.683593-32.296875c1.558594-3.433594.042969-7.480469-3.390625-9.042969-3.410156-1.570312-7.476562-.039062-9.035156 3.386719l-14.265625 31.386719v-35.386719c0-3.773437-3.058594-6.828125-6.828125-6.828125s-6.828125 3.054688-6.828125 6.828125v35.386719l-14.265625-31.386719c-1.558594-3.433594-5.628906-4.960937-9.035156-3.386719-3.433594 1.558594-4.949219 5.605469-3.390625 9.039063l14.640625 32.210937c-81.03125 7.855469-144.1875 66.476563-144.1875 137.402344 0 45.875 26.410156 88.304688 70.8125 114.148438-1.53125 4.53125-3.304688 9.132812-5.257813 14.058593-3.359375 8.480469-5.066406 17.292969-5.066406 26.195313 0 45.21875 42.917969 82.007812 95.664063 82.007812 52.746093 0 95.660156-36.789062 95.660156-82.007812 0-6.078125-.796875-12.152344-2.367188-18.046875-1.417968-5.34375-2.867187-11.132813-4.121094-17.152344zm-89.171874 103.550781c-45.21875 0-82.007813-30.660156-82.007813-68.355468 0-7.171876 1.378906-14.292969 4.097656-21.15625 3.175781-7.996094 5.972657-15.242188 8.03125-22.910157l2.074219-7.722656c3.078125-11.46875 2.90625-23.546875-.507812-34.933594l-1.820313-6.074219c-2.84375-9.488281 2.566406-19.261718 12.3125-22.253906l38.085937-11.695312c.550782-.171875 1.078126-.40625 1.570313-.714844l8.617187-5.292969c3.214844-1.972656 6.835938-2.957031 10.453126-2.957031 3.507812 0 7.015624.925781 10.15625 2.777344l11.386718 6.726562c.625.367188 1.300782.632813 2.003906.789063l41.105469 9.070312c5.21875 1.152344 9.683594 4.414063 12.253907 8.945313 2.492187 4.386718 2.988281 9.433594 1.402343 14.207031l-3.8125 11.460937c-2.585937 7.773438-3.648437 15.851563-3.160156 24.011719.925781 15.488281 4.488281 30.523438 7.855469 43.1875 1.269531 4.753907 1.910156 9.640625 1.910156 14.535157 0 37.695312-36.785156 68.355468-82.007812 68.355468zm0 0"/><path d="m251.167969 122.882812c-24.46875 0-44.375 16.84375-44.375 37.546876 0 20.699218 19.90625 37.546874 44.375 37.546874 24.464843 0 44.371093-16.847656 44.371093-37.546874 0-20.703126-19.90625-37.546876-44.371093-37.546876zm0 61.4375c-16.941407 0-30.722657-10.71875-30.722657-23.890624 0-13.175782 13.78125-23.894532 30.722657-23.894532 16.941406 0 30.71875 10.71875 30.71875 23.894532 0 13.171874-13.78125 23.890624-30.71875 23.890624zm0 0"/><path d="m77.085938 160.429688c0 20.699218 19.90625 37.546874 44.375 37.546874 24.464843 0 44.371093-16.847656 44.371093-37.546874 0-20.703126-19.90625-37.546876-44.371093-37.546876-24.46875 0-44.375 16.84375-44.375 37.546876zm75.09375 0c0 13.171874-13.777344 23.890624-30.71875 23.890624-16.941407 0-30.71875-10.71875-30.71875-23.890624 0-13.175782 13.777343-23.894532 30.71875-23.894532 16.941406 0 30.71875 10.71875 30.71875 23.894532zm0 0"/><path d="m165.113281 229.054688c-1.6875-3.375-5.78125-4.730469-9.160156-3.054688-3.375 1.6875-4.738281 5.789062-3.050781 9.160156l6.824218 13.65625c1.195313 2.390625 3.605469 3.773438 6.113282 3.773438 1.023437 0 2.066406-.234375 3.046875-.722656 3.375-1.683594 4.738281-5.785157 3.054687-9.160157zm0 0"/><path d="m203.019531 226c-3.386719-1.675781-7.476562-.320312-9.160156 3.054688l-6.824219 13.652343c-1.6875 3.375-.320312 7.476563 3.050782 9.160157.980468.488281 2.027343.722656 3.046874.722656 2.507813 0 4.917969-1.382813 6.113282-3.773438l6.828125-13.65625c1.6875-3.371094.320312-7.472656-3.054688-9.160156zm0 0"/><path d="m247.753906 150.1875c0 3.769531-3.054687 6.828125-6.828125 6.828125-3.769531 0-6.824219-3.058594-6.824219-6.828125s3.054688-6.824219 6.824219-6.824219c3.773438 0 6.828125 3.054688 6.828125 6.824219zm0 0"/><path d="m131.699219 150.1875c0 3.769531-3.054688 6.828125-6.824219 6.828125s-6.828125-3.058594-6.828125-6.828125 3.058594-6.824219 6.828125-6.824219 6.824219 3.054688 6.824219 6.824219zm0 0"/></svg>