<svg id="Capa_1" enable-background="new 0 0 512 512" height="512" viewBox="0 0 512 512" width="512" xmlns="http://www.w3.org/2000/svg"><g><g><path d="m458.81 422.723c-23.707 0-42.994 19.287-42.994 42.995s19.287 42.995 42.994 42.995 42.994-19.287 42.994-42.995-19.287-42.995-42.994-42.995zm0 65.989c-12.679 0-22.994-10.315-22.994-22.995s10.315-22.995 22.994-22.995 22.994 10.315 22.994 22.995-10.316 22.995-22.994 22.995z"/><path d="m441.213 325.717c0 19.503 15.866 35.37 35.369 35.37 19.487 0 35.341-15.867 35.341-35.37s-15.854-35.37-35.341-35.37c-19.503 0-35.369 15.867-35.369 35.37zm50.71 0c0 8.475-6.882 15.37-15.341 15.37-8.475 0-15.369-6.895-15.369-15.37s6.895-15.37 15.369-15.37c8.459 0 15.341 6.895 15.341 15.37z"/><path d="m425 386.774c0 5.523 4.478 10 10 10s10-4.477 10-10v-.057c0-5.523-4.478-9.972-10-9.972s-10 4.506-10 10.029z"/><path d="m388.599 421.504c-5.522 0-10 4.505-10 10.028s4.478 10 10 10 10-4.477 10-10v-.057c0-5.522-4.478-9.971-10-9.971z"/><path d="m61.757 241.246c0 5.523 4.478 10 10 10s10-4.477 10-10v-.028c0-5.523-4.478-9.986-10-9.986s-10 4.491-10 10.014z"/><path d="m158.356 65.445c0 5.523 4.478 10 10 10s10-4.477 10-10v-.029c0-5.523-4.478-9.986-10-9.986s-10 4.492-10 10.015z"/><path d="m488.833 262.608c3.378.123 6.56-1.495 8.493-4.253 1.934-2.758 2.35-6.304 1.105-9.434-14.052-35.37-38.083-65.544-69.494-87.261-16.368-11.316-34.184-19.911-52.906-25.63-8.883-29.099-24.726-55.914-46.053-77.841-3.852-3.959-10.181-4.046-14.142-.196-3.959 3.851-4.047 10.182-.196 14.141 16.306 16.765 29.026 36.715 37.354 58.396-10.886-1.894-21.99-2.86-33.218-2.86-9.063 0-17.977.645-26.709 1.865 1.566-27.75-14.419-38.434-22.218-41.957-25.541-11.536-66.194 2.348-85.292 29.125-14.412 20.207-13.609 43.091 1.835 63.959-27.032 25.722-46.589 59.218-55.081 96.858-14.01-2.718-28.73-.074-41.131 7.744-10.248 6.461-17.973 15.92-22.35 26.849-30.445-31.402-48.753-74.085-48.753-119.962 0-11.523 1.147-22.781 3.316-33.676 11.349 3.755 22.529 5.659 33.185 5.659 5.612 0 11.079-.528 16.349-1.59 17.628-3.554 32.396-13.053 41.586-26.748 17.453-26.01 12.198-60.347-12.941-89.929 26.344-16.385 57.409-25.867 90.652-25.867 17.792 0 35.297 2.685 52.028 7.981 5.267 1.669 10.885-1.25 12.552-6.516 1.666-5.265-1.251-10.885-6.517-12.551-18.686-5.915-38.222-8.914-58.063-8.914-105.951 0-192.147 86.199-192.147 192.151 0 84.458 55.597 159.218 135.888 183.777 24.064 78.682 97.358 136.072 183.811 136.072 17.757 0 35.333-2.426 52.242-7.209 3.619-1.024 6.357-3.992 7.087-7.682s-.672-7.478-3.629-9.802c-16.794-13.202-26.425-33.035-26.425-54.415 0-24.356 6.382-39.471 19.505-46.205 31.149-15.965 32.504-25.188 33.215-61.69.023-1.253.041-2.536.059-3.845.24-17.958.512-38.313 17.93-48.794 15.918-9.54 35.746-10.768 69.073-9.75zm-403.69-205.147c20.115 22.887 25.225 48.619 12.763 67.192-6.232 9.287-16.507 15.781-28.932 18.286-12.2 2.459-26.066 1.107-40.51-3.871 10.556-32.49 30.524-60.769 56.679-81.607zm.122 269.556c1.689-10.264 7.56-19.147 16.582-24.835 8.177-5.156 17.895-6.851 27.093-4.951-.872 7.412-1.337 14.947-1.337 22.59 0 11.275.985 22.323 2.857 33.071-16.525-6.353-31.713-15.142-45.195-25.875zm116.575-198.701c13.35-18.717 44.024-30.077 60.776-22.511 8.839 3.992 12.175 13.315 9.97 27.734-25.788 6.534-49.51 18.298-69.977 34.088-9.525-13.458-9.798-26.65-.769-39.311zm16.527 330.557c-25.16-18.4-45.164-43.447-57.395-72.541 11.579-14.565 25.199-20.023 39.626-15.791 20.854 6.118 39.112 30.812 39.87 53.924.364 11.085-3.346 25.648-22.101 34.408zm191.097-203.661c-26.972 16.229-27.369 45.983-27.632 65.673-.018 1.272-.034 2.519-.057 3.729-.641 32.845-.849 33.259-22.346 44.276-20.157 10.343-30.378 31.876-30.378 64.001 0 20.982 7.199 40.81 20.191 56.589-9.683 1.676-19.542 2.52-29.466 2.52-29.86 0-57.966-7.646-82.472-21.076 15.528-10.995 23.798-27.459 23.154-47.115-1.033-31.485-25.359-63.991-54.229-72.46-18.794-5.513-37.284-.571-52.617 13.589-3.91-14.386-6.01-29.51-6.01-45.118 0-94.924 77.237-172.151 172.174-172.151 65.87 0 124.697 36.687 153.801 94.66-27.678-.053-47.121 2.698-64.113 12.883z"/><path d="m112.154 200.513c0 5.523 4.478 10 10 10s10-4.477 10-10v-.057c0-5.523-4.478-9.972-10-9.972s-10 4.506-10 10.029z"/><path d="m266.317 201.568c-28.021 0-50.816 22.784-50.816 50.79s22.796 50.79 50.816 50.79c28.005 0 50.789-22.784 50.789-50.79s-22.784-50.79-50.789-50.79zm0 81.579c-16.992 0-30.816-13.813-30.816-30.79s13.824-30.79 30.816-30.79c16.978 0 30.789 13.812 30.789 30.79s-13.811 30.79-30.789 30.79z"/><path d="m319.465 323.271c-5.522 0-10 4.491-10 10.014s4.478 10 10 10 10-4.477 10-10v-.028c0-5.523-4.478-9.986-10-9.986z"/><path d="m371.932 212.169c-5.522 0-10 4.505-10 10.028s4.478 10 10 10 10-4.477 10-10v-.057c0-5.522-4.478-9.971-10-9.971z"/><path d="m189.021 296.753c-5.522 0-10 4.505-10 10.028s4.478 10 10 10 10-4.477 10-10v-.057c0-5.522-4.478-9.971-10-9.971z"/><path d="m287.491 46.872c2.56 0 5.118-.976 7.071-2.929 3.905-3.905 3.905-10.237 0-14.143l-.028-.028c-3.905-3.905-10.223-3.891-14.128.014s-3.892 10.251.014 14.157c1.953 1.953 4.512 2.929 7.071 2.929z"/></g></g></svg>