<svg id="dog" enable-background="new 0 0 300 300" height="512" viewBox="0 0 300 300" width="512" xmlns="http://www.w3.org/2000/svg"><g><path d="m231.783 121.484c.268-.211.512-.457.721-.734l8.418-11.141c7.781-10.297 3.105-34.902-3.926-42.803l-1.617-1.82c-1.699-1.908-4.041-3.041-6.594-3.189-2.547-.152-5.008.705-6.918 2.404l-18.801 16.734-12.092 1.416c-.219.025-.436.068-.646.131-6.832 1.977-13.387 5.641-18.957 10.598l-16.068 14.303c-4.85 4.316-7.537 10.443-7.564 17.25-.025 5.957 2.004 11.809 5.75 16.693l-3.104 13.078c-13.182 12.379-32.168 29.086-38.875 34.426-17.496 13.924-24.912 30.672-22.607 51.115-9.314 3.895-28.229 8.838-47.885-3.332-5.072-3.143-12.184-2.383-16.193 1.721-2.096 2.145-3.102 4.99-2.758 7.805.359 2.945 2.152 5.615 4.916 7.326 11.82 7.318 24.926 11.029 38.951 11.029 10.492 0 19.822-1.281 27.814-3.816.119.695.219 1.35.287 1.855.268 1.985 1.963 3.467 3.965 3.467h114c7.719 0 14-5.365 14-11.959s-6.281-11.959-14-11.959h-1.559l3.473-33.174 19.752-45.311c.248-.564.359-1.18.328-1.797l-1.939-39.051c-.022-.437-.114-.862-.272-1.265zm-78.537 41.19c3.004 2.977 4.754 7.02 4.754 11.326 0 8.822-7.178 16-16 16-4.889 0-9.397-2.222-12.415-6.034 7.392-6.462 16.191-14.351 23.661-21.292zm67.973-41.395 2.916 3.275 1.824 36.707-19.625 45.018c-.164.375-.27.773-.312 1.182l-4 38.205c-.117 1.127.248 2.252 1.006 3.094.76.842 1.84 1.322 2.973 1.322h6c3.535 0 6 2.086 6 3.959s-2.466 3.959-6.001 3.959h-15.404c.874-1.826 1.404-3.845 1.404-6 0-7.719-6.281-14-14-14h-15.079c.662-2.599 1.079-5.269 1.079-8.006 0-17.642-14.168-31.994-31.584-31.994-8.891 0-17.418 3.828-23.396 10.502-1.473 1.645-1.334 4.174.312 5.648 1.648 1.473 4.172 1.332 5.648-.312 4.461-4.98 10.816-7.838 17.436-7.838 13.004 0 23.584 10.764 23.584 23.994 0 4.949-1.469 9.699-4.246 13.738-1.252 1.82-.793 4.311 1.027 5.562.693.477 1.482.705 2.264.705 1.273 0 2.523-.605 3.299-1.732.513-.746.91-1.549 1.356-2.328.104.008.194.061.301.061h18c3.309 0 6 2.691 6 6s-2.691 6-6 6h-18-64.611c-.266-1.361-.613-2.855-1.021-3.971-.373-1.014-1.141-1.836-2.129-2.275-.988-.441-2.113-.461-3.117-.059-7.82 3.139-17.914 4.799-29.188 4.799-12.516 0-24.203-3.307-34.74-9.83-.689-.428-1.121-.973-1.186-1.494-.049-.41.131-.828.541-1.246 1.396-1.43 4.381-1.67 6.258-.51 25.115 15.549 49.064 6.967 58.197 2.557 1.586-.766 2.484-2.48 2.211-4.221-1.871-11.955-1.91-29.799 19.275-46.662 1.684-1.34 4.136-3.391 7.056-5.892 4.522 5.558 11.196 8.804 18.453 8.804 13.234 0 24-10.766 24-24 0-6.804-2.894-13.179-7.844-17.694l1.332-5.612c4.439 4.518 11.096 7.306 18.512 7.306 13.234 0 24-8.973 24-20v-16c0-2.209-1.791-4-4-4s-4 1.791-4 4v16c0 6.617-7.178 12-16 12-7.225 0-13.582-3.676-15.465-8.938-.171-.48-.442-.891-.756-1.255-.102-.788-.409-1.543-.951-2.154-3.303-3.707-5.109-8.32-5.09-12.988.018-4.506 1.752-8.52 4.885-11.307l16.066-14.303c4.602-4.094 9.971-7.131 15.553-8.799l13.006-1.523c.816-.096 1.582-.439 2.195-.984l19.744-17.572c.65-.574 1.641-.518 2.215.127l1.617 1.818c4.912 5.521 8.678 25.836 3.52 32.662l-7.299 9.66-3.254.18c-1.533.084-2.883 1.039-3.473 2.457s-.316 3.05.706 4.198z"/><circle cx="124" cy="92" r="6"/><path d="m252.025 166c-.01 0-.018 0-.025 0-3.73 0-7.238 1.449-9.881 4.082-2.65 2.641-4.113 6.154-4.119 9.893-.006 3.74 1.443 7.258 4.082 9.906 2.641 2.65 6.154 4.113 9.893 4.119h.025c3.73 0 7.238-1.449 9.881-4.082 2.65-2.641 4.113-6.154 4.119-9.893.006-3.74-1.443-7.258-4.082-9.906-2.641-2.65-6.154-4.113-9.893-4.119zm4.209 18.25c-1.133 1.129-2.634 1.75-4.234 1.75-.004 0-.008 0-.01 0-1.604-.002-3.109-.629-4.24-1.766-1.131-1.135-1.752-2.643-1.75-4.244.002-1.604.629-3.109 1.766-4.24 1.133-1.129 2.635-1.75 4.234-1.75h.01c1.604.002 3.109.629 4.24 1.766 1.131 1.135 1.752 2.643 1.75 4.244-.002 1.603-.629 3.109-1.766 4.24z"/><path d="m75.978 146.039c.781.785 1.809 1.178 2.834 1.178 1.021 0 2.043-.389 2.822-1.166l4.529-4.512 4.51 4.527c.781.785 1.809 1.178 2.834 1.178 1.021 0 2.043-.389 2.822-1.166 1.566-1.559 1.57-4.092.012-5.656l-4.512-4.529 4.527-4.51c1.566-1.559 1.57-4.092.012-5.656-1.561-1.568-4.096-1.568-5.656-.012l-4.529 4.512-4.51-4.527c-1.559-1.568-4.094-1.568-5.656-.012-1.566 1.559-1.57 4.092-.012 5.656l4.512 4.529-4.527 4.51c-1.566 1.558-1.57 4.092-.012 5.656z"/><circle cx="210" cy="98" r="4"/><path d="m254 66c1.023 0 2.047-.391 2.828-1.172l12-12c1.562-1.562 1.562-4.094 0-5.656s-4.094-1.562-5.656 0l-12 12c-1.562 1.562-1.562 4.094 0 5.656.781.781 1.804 1.172 2.828 1.172z"/><path d="m242 58c2.209 0 4-1.791 4-4v-16c0-2.209-1.791-4-4-4s-4 1.791-4 4v16c0 2.209 1.791 4 4 4z"/><path d="m274 70h-16c-2.209 0-4 1.791-4 4s1.791 4 4 4h16c2.209 0 4-1.791 4-4s-1.791-4-4-4z"/><path d="m202 154c-6.617 0-12 5.383-12 12s5.383 12 12 12 12-5.383 12-12-5.383-12-12-12zm0 16c-2.205 0-4-1.795-4-4s1.795-4 4-4 4 1.795 4 4-1.795 4-4 4z"/><path d="m134 254c6.617 0 12-5.383 12-12s-5.383-12-12-12-12 5.383-12 12 5.383 12 12 12zm0-16c2.205 0 4 1.795 4 4s-1.795 4-4 4-4-1.795-4-4 1.795-4 4-4z"/><circle cx="184" cy="208" r="6"/></g></svg>