<svg id="flight" enable-background="new 0 0 300 300" height="512" viewBox="0 0 300 300" width="512" xmlns="http://www.w3.org/2000/svg"><g><path d="m221.189 61.828c.781.781 1.805 1.172 2.828 1.172s2.047-.391 2.828-1.172l3.172-3.172 3.172 3.172c.781.781 1.805 1.172 2.828 1.172s2.047-.391 2.828-1.172c1.562-1.562 1.562-4.094 0-5.656l-3.171-3.172 3.172-3.172c1.562-1.562 1.562-4.094 0-5.656s-4.094-1.562-5.656 0l-3.172 3.172-3.172-3.172c-1.562-1.562-4.094-1.562-5.656 0s-1.562 4.094 0 5.656l3.171 3.172-3.172 3.172c-1.562 1.562-1.562 4.094 0 5.656z"/><circle cx="244.018" cy="115" r="4"/><circle cx="232.018" cy="231" r="4"/><path d="m178.701 143.55c.227-.226.474-.464.699-.689 19.211-19.211 30.219-32.428 34.652-41.596 4.918-10.18 1.695-15.438-2.105-19.238s-9.039-7.031-19.238-2.104c-9.168 4.432-22.383 15.443-41.594 34.654-.224.224-.462.471-.687.697l-92.614-23.153c-4.293-1.08-8.902.205-12.023 3.33-2.777 2.775-4.094 6.602-3.617 10.498.48 3.898 2.688 7.295 6.055 9.316l65.344 39.207c-9.349 10.457-18.418 20.97-26.429 30.731-4.097 4.992-7.642 9.437-10.74 13.436l-17.393-5.797c-1.441-.484-3.023-.105-4.094.967l-8.488 8.484c-.871.871-1.293 2.098-1.141 3.322s.859 2.311 1.922 2.941l15.524 9.25c-4.411 7.11-5.712 11.041-5.665 13.448l-4.98 4.98c-1.562 1.562-1.562 4.094 0 5.656.781.781 1.805 1.172 2.828 1.172s2.047-.391 2.828-1.172l4.986-4.986c.04.001.067.013.108.013 2.417 0 6.339-1.333 13.332-5.672l9.246 15.52c.633 1.061 1.719 1.77 2.941 1.922.168.021.332.031.496.031 1.055 0 2.074-.416 2.828-1.172l8.488-8.484c1.07-1.07 1.445-2.656.965-4.094l-5.8-17.399c4.006-3.103 8.437-6.631 13.441-10.738 9.76-8.01 20.272-17.078 30.729-26.427l39.209 65.343c2.02 3.367 5.41 5.572 9.305 6.053.527.066 1.055.098 1.578.098 3.34 0 6.527-1.311 8.934-3.713 3.125-3.131 4.398-7.738 3.324-12.023zm-126.355-35.144c-1.242-.744-2.055-1.996-2.23-3.432s.309-2.842 1.336-3.867c1.148-1.152 2.844-1.625 4.426-1.225l88.031 22.009c-8.081 8.295-16.541 17.312-24.892 26.518zm3.375 95.91 3.102-3.104 12.473 4.157c-1.534 2.074-2.903 3.983-4.142 5.76zm37.043 30.838-3.105 3.104-6.812-11.438c1.77-1.234 3.694-2.62 5.759-4.146zm-26.529-7.394c-.003-.003-.003-.007-.006-.01s-.008-.004-.012-.008c6.97-15.302 51.375-68.33 90.555-107.508 18.305-18.303 31.199-29.133 39.422-33.107 2.531-1.225 4.344-1.691 5.727-1.691 2.125 0 3.227 1.105 4.371 2.248 1.887 1.887 3.668 3.668.559 10.102-3.977 8.221-14.805 21.115-33.105 39.42-39.181 39.176-92.207 83.583-107.511 90.554zm126.634 14.769c-1.023 1.025-2.445 1.51-3.871 1.332-1.434-.178-2.684-.988-3.426-2.229l-40.005-66.672c9.207-8.352 18.225-16.812 26.52-24.893l22.009 88.036c.394 1.579-.078 3.276-1.227 4.426z"/><path d="m192.096 101.881-.004.004c-1.562 1.562-1.562 4.094 0 5.656.781.781 1.805 1.172 2.828 1.172s2.047-.391 2.828-1.172c3.121-3.119 3.121-8.195 0-11.316-3.117-3.113-8.195-3.113-11.312 0-1.562 1.561-1.562 4.092 0 5.654 1.566 1.568 4.101 1.559 5.66.002z"/><path d="m89.982 87h40c6.617 0 12-5.383 12-12s-5.383-12-12-12h-5.09c-2.504-7.035-9.25-12-16.91-12s-14.406 4.965-16.91 12h-1.09c-6.617 0-12 5.383-12 12s5.383 12 12 12zm0-16h4.203c1.988 0 3.676-1.461 3.961-3.43.703-4.887 4.934-8.57 9.836-8.57s9.133 3.684 9.836 8.57c.285 1.969 1.973 3.43 3.961 3.43h8.203c2.207 0 4 1.795 4 4s-1.793 4-4 4h-40c-2.207 0-4-1.795-4-4s1.793-4 4-4z"/><path d="m249.982 159h-5.09c-2.504-7.035-9.25-12-16.91-12s-14.406 4.965-16.91 12h-1.09c-6.617 0-12 5.383-12 12s5.383 12 12 12h40c6.617 0 12-5.383 12-12s-5.382-12-12-12zm0 16h-40c-2.207 0-4-1.795-4-4s1.793-4 4-4h4.203c1.988 0 3.676-1.461 3.961-3.43.703-4.887 4.934-8.57 9.836-8.57s9.133 3.684 9.836 8.57c.285 1.969 1.973 3.43 3.961 3.43h8.203c2.207 0 4 1.795 4 4s-1.793 4-4 4z"/><path d="m61.189 140.172-14 14c-1.562 1.562-1.562 4.094 0 5.656.781.781 1.805 1.172 2.828 1.172s2.047-.391 2.828-1.172l14-14c1.562-1.562 1.562-4.094 0-5.656s-4.093-1.563-5.656 0z"/><path d="m55.189 175.828c.781.781 1.805 1.172 2.828 1.172s2.047-.391 2.828-1.172l18-18c1.562-1.562 1.562-4.094 0-5.656s-4.094-1.562-5.656 0l-18 18c-1.562 1.562-1.562 4.094 0 5.656z"/><path d="m140.846 227.828 6-6c1.562-1.562 1.562-4.094 0-5.656s-4.094-1.562-5.656 0l-6 6c-1.562 1.562-1.562 4.094 0 5.656.781.781 1.805 1.172 2.828 1.172s2.046-.391 2.828-1.172z"/><path d="m50.846 180.172c-1.562-1.562-4.094-1.562-5.656 0l-6 6c-1.562 1.562-1.562 4.094 0 5.656.781.781 1.805 1.172 2.828 1.172s2.047-.391 2.828-1.172l6-6c1.562-1.562 1.562-4.094 0-5.656z"/><path d="m130.846 232.172c-1.562-1.562-4.094-1.562-5.656 0l-18 18c-1.562 1.562-1.562 4.094 0 5.656.781.781 1.805 1.172 2.828 1.172s2.047-.391 2.828-1.172l18-18c1.562-1.562 1.562-4.094 0-5.656z"/><path d="m149.189 228.172-18 18c-1.562 1.562-1.562 4.094 0 5.656.781.781 1.805 1.172 2.828 1.172s2.047-.391 2.828-1.172l18-18c1.562-1.562 1.562-4.094 0-5.656s-4.093-1.563-5.656 0z"/></g></svg>